<?xml version="1.0" standalone="no"?><!DOCTYPE svg PUBLIC "-//W3C//DTD SVG 1.1//EN" "http://www.w3.org/Graphics/SVG/1.1/DTD/svg11.dtd"><svg t="1568182517896" class="icon" viewBox="0 0 1082 1024" version="1.1" xmlns="http://www.w3.org/2000/svg" p-id="4818" xmlns:xlink="http://www.w3.org/1999/xlink" width="211.328125" height="200"><defs><style type="text/css"></style></defs><path d="M10.971429 157.578971m117.028571 0l819.2 0q117.028571 0 117.028571 117.028572l0 627.712q0 117.028571-117.028571 117.028571l-819.2 0q-117.028571 0-117.028571-117.028571l0-627.712q0-117.028571 117.028571-117.028572Z" fill="#FFA127" p-id="4819"></path><path d="M202.459429 4.388571m58.514285 0l17.027657 0q58.514286 0 58.514286 58.514286l0 189.381486q0 58.514286-58.514286 58.514286l-17.027657 0q-58.514286 0-58.514285-58.514286l0-189.381486q0-58.514286 58.514285-58.514286Z" fill="#FFD272" p-id="4820"></path><path d="M738.684343 4.388571m58.514286 0l17.027657 0q58.514286 0 58.514285 58.514286l0 189.381486q0 58.514286-58.514285 58.514286l-17.027657 0q-58.514286 0-58.514286-58.514286l0-189.381486q0-58.514286 58.514286-58.514286Z" fill="#FFD272" p-id="4821"></path><path d="M202.459429 157.578971h134.056228v94.705372a58.514286 58.514286 0 0 1-58.514286 58.514286h-17.027657a58.514286 58.514286 0 0 1-58.514285-58.514286V157.578971zM738.684343 157.578971h134.056228v94.705372a58.514286 58.514286 0 0 1-58.514285 58.514286h-17.027657a58.514286 58.514286 0 0 1-58.514286-58.514286V157.578971z" fill="#FF4D06" p-id="4822"></path><path d="M216.239543 487.570286H151.113143v-37.361372h166.473143v37.361372H252.459886v239.147885H216.239543v-239.147885z m238.445714 140.141714l-34.435657-120.802743h-0.643657l-34.435657 120.832h69.514971z m10.298514 37.185829h-90.258285l-18.285715 61.820342h-38.180571l86.484114-276.509257h30.193372l86.513371 276.509257h-38.034286l-18.432-61.820342z m84.845715-5.295543a95.904914 95.904914 0 0 0 67.584 27.501714c30.895543-0.526629 46.577371-13.341257 46.986971-38.5024 0.234057-20.626286-10.093714-33.002057-31.012571-37.185829-9.567086-1.521371-20.0704-3.218286-31.480686-5.12-20.48-3.920457-36.015543-12.6976-46.6944-26.360685-10.971429-14.043429-16.471771-31.100343-16.471771-51.2 0-24.1664 6.904686-43.6224 20.743314-58.426515 13.370514-14.657829 32.3584-22.1184 56.9344-22.381714 29.608229 0.760686 55.325257 10.298514 77.2096 28.642743l-20.0704 34.523429a98.772114 98.772114 0 0 0-58.923886-21.240686c-11.117714 0-20.333714 3.218286-27.735771 9.654857-7.723886 6.729143-11.702857 16.676571-11.936915 29.988571 0 7.957943 2.691657 15.1552 8.016458 21.621029 5.3248 6.5536 13.867886 11.117714 25.629257 13.633829 6.524343 1.287314 15.447771 2.720914 26.741028 4.388571 22.3232 3.510857 38.794971 12.814629 49.444572 27.8528 10.591086 14.804114 15.857371 32.007314 15.857371 51.6096-1.199543 52.8384-29.052343 79.637943-83.5584 80.398629-35.254857 0-65.565257-12.639086-90.901943-37.917258l23.639772-31.480685z m188.854857-209.393372h36.074057v142.423772h0.643657l97.923657-142.423772h42.744686l-76.214857 109.041372 84.231314 167.467885h-42.773943l-64.775314-135.226514-41.7792 51.024457v84.202057h-36.074057v-276.509257z" fill="#FFFAF6" p-id="4823"></path></svg>